<?xml version="1.0" ?><svg style="enable-background:new 0 0 100 100;" version="1.1" viewBox="0 0 100 100" xml:space="preserve" xmlns="http://www.w3.org/2000/svg" xmlns:xlink="http://www.w3.org/1999/xlink"><g id="news_updates"/><g id="newspaper"/><g id="fake_news"/><g id="secret_document"/><g id="interview"/><g id="reporter"/><g id="id_card"/><g id="camera"/><g id="television"/><g id="crime_scane"/><g id="note"><g><path d="M35,16c-2.2,0-4,1.8-4,4s1.8,4,4,4s4-1.8,4-4S37.2,16,35,16z M35,22c-1.1,0-2-0.9-2-2s0.9-2,2-2s2,0.9,2,2S36.1,22,35,22z    "/><path d="M16,16c-2.2,0-4,1.8-4,4s1.8,4,4,4s4-1.8,4-4S18.2,16,16,16z M16,22c-1.1,0-2-0.9-2-2s0.9-2,2-2s2,0.9,2,2S17.1,22,16,22z    "/><path d="M54,16c-2.2,0-4,1.8-4,4s1.8,4,4,4s4-1.8,4-4S56.2,16,54,16z M54,22c-1.1,0-2-0.9-2-2s0.9-2,2-2s2,0.9,2,2S55.1,22,54,22z    "/><path d="M96,28.9c0-2.1-0.8-4.1-2.3-5.6c-1.5-1.5-3.5-2.3-5.6-2.3c-2.1,0-4.1,0.8-5.6,2.3c-0.4-0.4-1-0.4-1.4,0l-15,15V27V13    c0-0.6-0.4-1-1-1H5c-0.6,0-1,0.4-1,1v14v60c0,0.6,0.4,1,1,1h60h0c0,0,0,0,0,0c0.1,0,0.3,0,0.4-0.1c0,0,0.1,0,0.1-0.1    c0.1,0,0.1-0.1,0.2-0.1c0,0,0.1-0.1,0.1-0.1c0-0.1,0.1-0.1,0.1-0.2c0,0,0-0.1,0-0.1c0,0,0-0.1,0-0.1c0,0,0,0,0-0.1c0,0,0,0,0-0.1    V64c0-0.1,0-0.2-0.1-0.3l24.2-24.2c0,0,0,0,0,0s0,0,0,0l3.5-3.5c0.2-0.2,0.3-0.4,0.3-0.7c0-0.3-0.1-0.5-0.3-0.7    C95.2,33,96,31.1,96,28.9z M88.1,23c1.6,0,3.1,0.6,4.2,1.7c1.1,1.1,1.7,2.6,1.7,4.2c0,1.6-0.6,3.1-1.7,4.2l-8.4-8.4    C85,23.6,86.5,23,88.1,23z M60,66.8l-2.1-2.1l28-28l2.1,2.1L60,66.8z M48,66l3,3l-3.7,0.7L48,66z M53.3,68.5l-4.8-4.8l0.9-4.7    l8.6,8.6L53.3,68.5z M56.5,63.3l-2.8-2.8l28-28l2.8,2.8L56.5,63.3z M52.3,59.1L50.2,57l28-28l2.1,2.1L52.3,59.1z M6,14h58v12H6V14    z M6,86V60.4c11.1,16,30.4,22.8,43.9,25.6H6z M7.2,58.6c8.3,2,16.4,1.9,24-0.3c0.9,4.2,5.2,18.7,24.8,26.8    C43.1,83.1,19.4,77.1,7.2,58.6z M64,85.7c-28.7-8-31-28.6-31-28.8c0-0.3-0.2-0.6-0.4-0.7C32.3,56,32,56,31.7,56    C23.6,58.6,15,58.6,6,56.2V28h58v12c0,0.1,0,0.2,0.1,0.3l-16,16c0,0,0,0,0,0.1c0,0.1-0.1,0.1-0.1,0.2c0,0.1-0.1,0.1-0.1,0.2    c0,0,0,0.1,0,0.1l-2.8,14c-0.1,0.3,0,0.7,0.3,0.9c0.2,0.2,0.4,0.3,0.7,0.3c0.1,0,0.1,0,0.2,0l14-2.8c0,0,0.1,0,0.1,0    c0.1,0,0.1,0,0.2-0.1c0.1,0,0.1-0.1,0.2-0.1c0,0,0.1,0,0.1,0l3.3-3.3V85.7z M89.5,37.3l-9.8-9.8l2.1-2.1l9.8,9.8L89.5,37.3z"/><path d="M19,34h32c0.6,0,1-0.4,1-1s-0.4-1-1-1H19c-0.6,0-1,0.4-1,1S18.4,34,19,34z"/><path d="M10,40h50c0.6,0,1-0.4,1-1s-0.4-1-1-1H10c-0.6,0-1,0.4-1,1S9.4,40,10,40z"/><path d="M10,45h47c0.6,0,1-0.4,1-1s-0.4-1-1-1H10c-0.6,0-1,0.4-1,1S9.4,45,10,45z"/><path d="M10,50h42c0.6,0,1-0.4,1-1s-0.4-1-1-1H10c-0.6,0-1,0.4-1,1S9.4,50,10,50z"/><path d="M47,54c0-0.6-0.4-1-1-1H10c-0.6,0-1,0.4-1,1s0.4,1,1,1h36C46.6,55,47,54.6,47,54z"/></g></g><g id="recorder"/><g id="station_television"/><g id="file_storage"/><g id="news_anchor"/><g id="trending_news"/><g id="world_news"/><g id="document"/><g id="radio"/><g id="video_recorder"/></svg>